<?xml version="1.0" encoding="utf-8"?>
<!-- Generator: Adobe Illustrator 25.2.3, SVG Export Plug-In . SVG Version: 6.00 Build 0)  -->
<svg version="1.1" xmlns="http://www.w3.org/2000/svg" xmlns:xlink="http://www.w3.org/1999/xlink" x="0px" y="0px" width="64px"
	 height="64px" viewBox="0 0 64 64" enable-background="new 0 0 64 64" xml:space="preserve">
<g id="Layer_1">
</g>
<g id="Layer_2">
	<g>
		<path d="M61,16H25c-1.7,0-3,1.3-3,3v1h-1v-1c0-1.7-1.3-3-3-3s-3,1.3-3,3v1.5c-0.8,0.4-1.5,0.9-2,1.6L12,23.4
			c-0.3,0.4-0.2,1.1,0.2,1.4c0.4,0.3,1.1,0.2,1.4-0.2l0.9-1.3c0.6-0.8,1.5-1.3,2.4-1.3H22v1h-4c-1,0-1.9,0.5-2.4,1.2L8.2,34.4
			c-0.2,0.3-0.3,0.7-0.1,1C8.3,35.8,8.6,36,9,36h13v2H2c0.1-0.3,0.3-0.5,0.5-0.7l2-1c0.7-0.4,1.4-0.9,1.8-1.6l5.1-7.2
			c0.3-0.4,0.2-1.1-0.2-1.4c-0.4-0.3-1.1-0.2-1.4,0.2l-5.1,7.2c-0.3,0.4-0.7,0.7-1.1,0.9l-2,1c-1,0.5-1.7,1.5-1.7,2.7V49
			c0,1.7,1.3,3,3,3h3.7c1.1,2.4,3.5,4,6.3,4s5.2-1.6,6.3-4H21c0.8,0,1.5-0.3,2-0.8c0.5,0.5,1.2,0.8,2,0.8h19.7c1.1,2.4,3.5,4,6.3,4
			s5.2-1.6,6.3-4H61c1.7,0,3-1.3,3-3V19C64,17.3,62.7,16,61,16z M17.1,20L17.1,20L17,19c0-0.6,0.4-1,1-1s1,0.4,1,1v1H17.1z M24,19
			c0-0.6,0.4-1,1-1h36c0.6,0,1,0.4,1,1v19H37c-0.6,0-1,0.4-1,1s0.4,1,1,1h25v2H24v-2h9c0.6,0,1-0.4,1-1s-0.4-1-1-1h-9V19z M11,34
			l6.2-8.6c0.2-0.3,0.5-0.4,0.8-0.4h4v9H11z M22,42H2v-2h20V42z M3,50c-0.6,0-1-0.4-1-1v-5h6.1C6.8,45.3,6,47,6,49
			c0,0.3,0,0.7,0.1,1H3z M13,54c-2.8,0-5-2.2-5-5s2.2-5,5-5s5,2.2,5,5S15.8,54,13,54z M21,50h-1.1c0-0.3,0.1-0.7,0.1-1
			c0-2-0.8-3.7-2.1-5H22v5C22,49.6,21.6,50,21,50z M25,50c-0.6,0-1-0.4-1-1v-5h22.1c-1.3,1.3-2.1,3-2.1,5c0,0.3,0,0.7,0.1,1H25z
			 M51,54c-2.8,0-5-2.2-5-5s2.2-5,5-5s5,2.2,5,5S53.8,54,51,54z M61,50h-3.1c0-0.3,0.1-0.7,0.1-1c0-2-0.8-3.7-2.1-5H62v5
			C62,49.6,61.6,50,61,50z"/>
		<path d="M18,12c0.6,0,1-0.4,1-1V9c0-0.6-0.4-1-1-1s-1,0.4-1,1v2C17,11.6,17.4,12,18,12z"/>
		<path d="M13.3,13.7c0.2,0.2,0.5,0.3,0.7,0.3s0.5-0.1,0.7-0.3c0.4-0.4,0.4-1,0-1.4l-1-1c-0.4-0.4-1-0.4-1.4,0s-0.4,1,0,1.4
			L13.3,13.7z"/>
		<path d="M22,14c0.3,0,0.5-0.1,0.7-0.3l1-1c0.4-0.4,0.4-1,0-1.4s-1-0.4-1.4,0l-1,1c-0.4,0.4-0.4,1,0,1.4C21.5,13.9,21.7,14,22,14z"
			/>
		<path d="M13,46c-1.7,0-3,1.3-3,3s1.3,3,3,3s3-1.3,3-3S14.7,46,13,46z M13,50c-0.6,0-1-0.4-1-1s0.4-1,1-1s1,0.4,1,1S13.6,50,13,50z
			"/>
		<path d="M51,46c-1.7,0-3,1.3-3,3s1.3,3,3,3s3-1.3,3-3S52.7,46,51,46z M51,50c-0.6,0-1-0.4-1-1s0.4-1,1-1s1,0.4,1,1S51.6,50,51,50z
			"/>
		<path d="M37,31h3v3c0,0.6,0.4,1,1,1h4c0.6,0,1-0.4,1-1v-3h3c0.6,0,1-0.4,1-1v-4c0-0.6-0.4-1-1-1h-3v-3c0-0.6-0.4-1-1-1h-4
			c-0.6,0-1,0.4-1,1v3h-3c-0.6,0-1,0.4-1,1v4C36,30.6,36.4,31,37,31z M38,27h3c0.6,0,1-0.4,1-1v-3h2v3c0,0.6,0.4,1,1,1h3v2h-3
			c-0.6,0-1,0.4-1,1v3h-2v-3c0-0.6-0.4-1-1-1h-3V27z"/>
	</g>
</g>
<g id="Layer_3">
</g>
<g id="Layer_4">
</g>
<g id="Layer_5">
</g>
<g id="Layer_6">
</g>
<g id="Layer_7">
</g>
<g id="Layer_8">
</g>
<g id="Layer_9">
</g>
<g id="Layer_10">
</g>
<g id="Layer_11">
</g>
<g id="Layer_12">
</g>
<g id="Layer_13">
</g>
<g id="Layer_14">
</g>
<g id="Layer_15">
</g>
<g id="Layer_16">
</g>
<g id="Layer_17">
</g>
<g id="Layer_18">
</g>
<g id="Layer_19">
</g>
<g id="Layer_20">
</g>
<g id="Layer_21">
</g>
<g id="Layer_22">
</g>
<g id="Layer_23">
</g>
<g id="Layer_24">
</g>
<g id="Layer_25">
</g>
<g id="Layer_26">
</g>
<g id="Layer_27">
</g>
<g id="Layer_28">
</g>
<g id="Layer_29">
</g>
<g id="Layer_30">
</g>
<g id="Layer_31">
</g>
</svg>
